<?xml version="1.0" encoding="iso-8859-1"?>
<!-- Generator: Adobe Illustrator 19.0.0, SVG Export Plug-In . SVG Version: 6.00 Build 0)  -->
<svg version="1.1" id="Layer_1" xmlns="http://www.w3.org/2000/svg" xmlns:xlink="http://www.w3.org/1999/xlink" x="0px" y="0px"
	 viewBox="0 0 512 512" style="enable-background:new 0 0 512 512;" xml:space="preserve" fill="#F3CF77">
<g>
	<g>
		<path d="M130.298,198.62l-14.828-25.682c-2.817-4.877-9.053-6.55-13.932-3.733c-4.878,2.816-6.55,9.054-3.733,13.932
			l14.828,25.682c1.89,3.272,5.317,5.101,8.843,5.101c1.73,0,3.484-0.441,5.089-1.368
			C131.443,209.736,133.115,203.499,130.298,198.62z"/>
	</g>
</g>
<g>
	<g>
		<path d="M126.275,35.529c-4.88-2.816-11.117-1.145-13.932,3.733l-45.859,79.429c-1.822,3.156-1.822,7.044,0,10.199l13.317,23.065
			c1.89,3.272,5.317,5.101,8.843,5.101c1.73,0,3.484-0.441,5.089-1.368c4.879-2.816,6.55-9.054,3.733-13.932l-10.373-17.965
			l42.914-74.33C132.825,44.583,131.154,38.345,126.275,35.529z"/>
	</g>
</g>
<g>
	<g>
		<path d="M507.882,233.337L442.3,119.746c-1.822-3.156-5.189-5.1-8.833-5.1H308.375L245.129,5.1c-1.822-3.156-5.189-5.1-8.833-5.1
			H105.13c-3.643,0-7.011,1.944-8.832,5.1L30.716,118.691c-1.822,3.156-1.822,7.044,0,10.199l65.582,113.593
			c1.822,3.156,5.189,5.1,8.833,5.1h125.093l63.246,109.547c1.822,3.156,5.189,5.1,8.833,5.1h131.165c3.643,0,7.011-1.944,8.833-5.1
			l65.582-113.593C509.703,240.381,509.703,236.493,507.882,233.337z M111.019,227.184L51.325,123.791l59.694-103.392h119.389
			l59.693,103.392l-59.693,103.393H111.019z M427.579,341.829H308.191l-59.694-103.392l59.694-103.392h119.388l59.693,103.392
			L427.579,341.829z"/>
	</g>
</g>
<g>
	<g>
		<path d="M284.113,383.11L218.53,269.517c-1.822-3.156-5.189-5.1-8.833-5.1H78.533c-3.643,0-7.011,1.944-8.833,5.1L4.118,383.11
			c-1.822,3.156-1.822,7.044,0,10.199L69.7,506.9c1.822,3.156,5.189,5.1,8.833,5.1h131.165c3.643,0,7.011-1.944,8.833-5.1
			l65.583-113.592C285.935,390.153,285.935,386.265,284.113,383.11z M203.809,491.602H84.421L24.728,388.209l59.693-103.393h119.388
			l59.694,103.393L203.809,491.602z"/>
	</g>
</g>
<g>
</g>
<g>
</g>
<g>
</g>
<g>
</g>
<g>
</g>
<g>
</g>
<g>
</g>
<g>
</g>
<g>
</g>
<g>
</g>
<g>
</g>
<g>
</g>
<g>
</g>
<g>
</g>
<g>
</g>
</svg>
